<?xml version="1.0" encoding="UTF-8"?>
<svg width="20px" height="20px" viewBox="0 0 20 20" version="1.1" xmlns="http://www.w3.org/2000/svg" xmlns:xlink="http://www.w3.org/1999/xlink">
    <title>Shape</title>
    <g id="Landing-Page-v2" stroke="none" stroke-width="1" fill="none" fill-rule="evenodd">
        <g id="homepage-mobile" transform="translate(-147.000000, -888.000000)" fill="#6D381D" fill-rule="nonzero">
            <g id="footer-group" transform="translate(0.000000, 820.000000)">
                <g id="icons8-instagram" transform="translate(147.000000, 68.000000)">
                    <path d="M5.90909091,0 C2.65112905,0 0,2.65112905 0,5.90909091 L0,14.0909091 C0,17.3488709 2.65112905,20 5.90909091,20 L14.0909091,20 C17.3488709,20 20,17.3488709 20,14.0909091 L20,5.90909091 C20,2.65112905 17.3488709,0 14.0909091,0 L5.90909091,0 Z M5.90909091,0.909090909 L14.0909091,0.909090909 C16.8574927,0.909090909 19.0909091,3.14250732 19.0909091,5.90909091 L19.0909091,14.0909091 C19.0909091,16.8574927 16.8574927,19.0909091 14.0909091,19.0909091 L5.90909091,19.0909091 C3.14250732,19.0909091 0.909090909,16.8574927 0.909090909,14.0909091 L0.909090909,5.90909091 C0.909090909,3.14250732 3.14250732,0.909090909 5.90909091,0.909090909 Z M15.4545455,3.63636364 C14.9524684,3.63636364 14.5454545,4.0433775 14.5454545,4.54545455 C14.5454545,5.04753159 14.9524684,5.45454545 15.4545455,5.45454545 C15.9566225,5.45454545 16.3636364,5.04753159 16.3636364,4.54545455 C16.3636364,4.0433775 15.9566225,3.63636364 15.4545455,3.63636364 Z M10,5 C7.24396,5 5,7.24396 5,10 C5,12.75604 7.24396,15 10,15 C12.75604,15 15,12.75604 15,10 C15,7.24396 12.75604,5 10,5 Z M10,5.90909091 C12.2647305,5.90909091 14.0909091,7.73526955 14.0909091,10 C14.0909091,12.2647305 12.2647305,14.0909091 10,14.0909091 C7.73526955,14.0909091 5.90909091,12.2647305 5.90909091,10 C5.90909091,7.73526955 7.73526955,5.90909091 10,5.90909091 Z" id="Shape"></path>
                </g>
            </g>
        </g>
    </g>
</svg>